<svg width="23" height="23" viewBox="0 0 23 23" fill="none" xmlns="http://www.w3.org/2000/svg">
<path d="M20.4844 4.3125H7.36719C7.26836 4.3125 7.1875 4.39336 7.1875 4.49219V5.75C7.1875 5.84883 7.26836 5.92969 7.36719 5.92969H20.4844C20.5832 5.92969 20.6641 5.84883 20.6641 5.75V4.49219C20.6641 4.39336 20.5832 4.3125 20.4844 4.3125ZM20.4844 10.6914H7.36719C7.26836 10.6914 7.1875 10.7723 7.1875 10.8711V12.1289C7.1875 12.2277 7.26836 12.3086 7.36719 12.3086H20.4844C20.5832 12.3086 20.6641 12.2277 20.6641 12.1289V10.8711C20.6641 10.7723 20.5832 10.6914 20.4844 10.6914ZM20.4844 17.0703H7.36719C7.26836 17.0703 7.1875 17.1512 7.1875 17.25V18.5078C7.1875 18.6066 7.26836 18.6875 7.36719 18.6875H20.4844C20.5832 18.6875 20.6641 18.6066 20.6641 18.5078V17.25C20.6641 17.1512 20.5832 17.0703 20.4844 17.0703ZM2.33594 5.12109C2.33594 5.28627 2.36847 5.44983 2.43168 5.60244C2.49489 5.75504 2.58754 5.8937 2.70434 6.0105C2.82114 6.1273 2.9598 6.21995 3.11241 6.28316C3.26501 6.34637 3.42857 6.37891 3.59375 6.37891C3.75893 6.37891 3.92249 6.34637 4.07509 6.28316C4.2277 6.21995 4.36636 6.1273 4.48316 6.0105C4.59996 5.8937 4.69261 5.75504 4.75582 5.60244C4.81903 5.44983 4.85156 5.28627 4.85156 5.12109C4.85156 4.95592 4.81903 4.79235 4.75582 4.63975C4.69261 4.48715 4.59996 4.34848 4.48316 4.23169C4.36636 4.11489 4.2277 4.02224 4.07509 3.95903C3.92249 3.89582 3.75893 3.86328 3.59375 3.86328C3.42857 3.86328 3.26501 3.89582 3.11241 3.95903C2.9598 4.02224 2.82114 4.11489 2.70434 4.23169C2.58754 4.34848 2.49489 4.48715 2.43168 4.63975C2.36847 4.79235 2.33594 4.95592 2.33594 5.12109ZM2.33594 11.5C2.33594 11.6652 2.36847 11.8287 2.43168 11.9813C2.49489 12.1339 2.58754 12.2726 2.70434 12.3894C2.82114 12.5062 2.9598 12.5989 3.11241 12.6621C3.26501 12.7253 3.42857 12.7578 3.59375 12.7578C3.75893 12.7578 3.92249 12.7253 4.07509 12.6621C4.2277 12.5989 4.36636 12.5062 4.48316 12.3894C4.59996 12.2726 4.69261 12.1339 4.75582 11.9813C4.81903 11.8287 4.85156 11.6652 4.85156 11.5C4.85156 11.3348 4.81903 11.1713 4.75582 11.0187C4.69261 10.8661 4.59996 10.7274 4.48316 10.6106C4.36636 10.4938 4.2277 10.4011 4.07509 10.3379C3.92249 10.2747 3.75893 10.2422 3.59375 10.2422C3.42857 10.2422 3.26501 10.2747 3.11241 10.3379C2.9598 10.4011 2.82114 10.4938 2.70434 10.6106C2.58754 10.7274 2.49489 10.8661 2.43168 11.0187C2.36847 11.1713 2.33594 11.3348 2.33594 11.5ZM2.33594 17.8789C2.33594 18.0441 2.36847 18.2076 2.43168 18.3603C2.49489 18.5129 2.58754 18.6515 2.70434 18.7683C2.82114 18.8851 2.9598 18.9778 3.11241 19.041C3.26501 19.1042 3.42857 19.1367 3.59375 19.1367C3.75893 19.1367 3.92249 19.1042 4.07509 19.041C4.2277 18.9778 4.36636 18.8851 4.48316 18.7683C4.59996 18.6515 4.69261 18.5129 4.75582 18.3603C4.81903 18.2076 4.85156 18.0441 4.85156 17.8789C4.85156 17.7137 4.81903 17.5502 4.75582 17.3976C4.69261 17.245 4.59996 17.1063 4.48316 16.9895C4.36636 16.8727 4.2277 16.7801 4.07509 16.7168C3.92249 16.6536 3.75893 16.6211 3.59375 16.6211C3.42857 16.6211 3.26501 16.6536 3.11241 16.7168C2.9598 16.7801 2.82114 16.8727 2.70434 16.9895C2.58754 17.1063 2.49489 17.245 2.43168 17.3976C2.36847 17.5502 2.33594 17.7137 2.33594 17.8789Z" fill="#D9D9D9"/>
</svg>
