<svg width="24" height="24" viewBox="0 0 24 24" fill="none" xmlns="http://www.w3.org/2000/svg">
<path d="M20.8519 20.1919L18.735 16.0237C18.705 15.9637 18.6488 15.9206 18.5831 15.9056C18.5175 15.8906 18.45 15.9075 18.3975 15.9487C17.2125 16.8881 15.1763 17.5969 13.6594 17.5969C10.7287 17.5969 8.68125 15.6131 8.68125 12.7725C8.68125 9.93186 10.7287 7.94811 13.6594 7.94811C15.2456 7.94811 16.8731 8.45811 17.9044 9.28124C17.955 9.32249 18.0244 9.33749 18.0881 9.32624C18.1519 9.31311 18.2081 9.27186 18.24 9.21374L20.5875 4.93686C20.64 4.84124 20.6156 4.72124 20.5294 4.65374C18.7538 3.24749 16.5 2.56311 13.6388 2.56311C7.545 2.56311 3.12375 6.85874 3.12375 12.7744C3.12375 18.6919 7.545 22.9856 13.6388 22.9856C16.4269 22.9856 18.8363 22.1381 20.7975 20.4637C20.8763 20.3962 20.8988 20.2837 20.8519 20.1919V20.1919Z" fill="#40C0E7"/>
</svg>
