<svg width="17" height="17" viewBox="0 0 17 17" fill="none" xmlns="http://www.w3.org/2000/svg">
<path d="M8.10322 6.88467V5.03691L4.99541 7.10547L6.3833 8.03184L8.10322 6.88467ZM12.3217 9.1707V7.8459L11.3289 8.5083L12.3217 9.1707ZM8.5 1.0625C4.39277 1.0625 1.0625 4.39277 1.0625 8.5C1.0625 12.6072 4.39277 15.9375 8.5 15.9375C12.6072 15.9375 15.9375 12.6072 15.9375 8.5C15.9375 4.39277 12.6072 1.0625 8.5 1.0625ZM13.1152 9.91113C13.1152 9.92939 13.1136 9.946 13.1119 9.9626C13.1119 9.96924 13.1103 9.97422 13.1086 9.9792C13.1063 9.99736 13.1018 10.0152 13.0953 10.0323C13.092 10.0423 13.0887 10.0522 13.0854 10.0605C13.082 10.0672 13.0787 10.0738 13.0771 10.0805C13.0721 10.0888 13.0688 10.0987 13.0638 10.107C13.0604 10.1137 13.0571 10.1187 13.0521 10.1253C13.0472 10.1336 13.0405 10.1419 13.0355 10.1502C13.0306 10.1568 13.0272 10.1618 13.0223 10.1668C13.0156 10.1734 13.009 10.1817 13.0023 10.1884C12.9974 10.1934 12.9924 10.1983 12.9857 10.2033C12.9791 10.21 12.9708 10.2166 12.9625 10.2216C12.9559 10.2266 12.9509 10.2315 12.9442 10.2349C12.9426 10.2365 12.9393 10.2382 12.9376 10.2398L8.71914 13.0488C8.65273 13.0937 8.57637 13.1152 8.5 13.1152C8.42197 13.1152 8.34561 13.092 8.2792 13.0488L4.06074 10.2415C4.05908 10.2398 4.05576 10.2382 4.0541 10.2365L4.03584 10.2232C4.02754 10.2166 4.0209 10.2116 4.01426 10.205C4.00928 10.2 4.0043 10.195 3.99766 10.19C3.99102 10.1834 3.98438 10.1768 3.97773 10.1685C3.97281 10.1633 3.96836 10.1578 3.96445 10.1519C3.95781 10.1436 3.95283 10.1353 3.94785 10.127C3.94453 10.1203 3.93955 10.1153 3.93623 10.1087C3.93125 10.1004 3.92627 10.0904 3.92295 10.0821C3.91963 10.0755 3.91631 10.0688 3.91465 10.0622C3.91133 10.0522 3.90801 10.0423 3.90469 10.034C3.90303 10.0273 3.89971 10.0207 3.89805 10.0141C3.89473 10.0024 3.89307 9.99248 3.89141 9.98086C3.88975 9.97588 3.88975 9.96924 3.88809 9.96426C3.88643 9.94766 3.88477 9.92939 3.88477 9.91279V7.10381C3.88477 7.08721 3.88643 7.06894 3.88809 7.05234C3.88975 7.04736 3.88975 7.04072 3.89141 7.03574C3.89375 7.01758 3.89821 6.99975 3.90469 6.98262C3.90801 6.97266 3.91133 6.9627 3.91465 6.95439C3.91797 6.94775 3.92129 6.94111 3.92295 6.93447C3.92627 6.92617 3.93125 6.91621 3.93623 6.90791C3.93955 6.90127 3.94287 6.89629 3.94785 6.88965C3.95781 6.87471 3.96777 6.86143 3.97773 6.84814C3.98438 6.8415 3.99102 6.8332 3.99766 6.82656C4.00264 6.82158 4.00762 6.8166 4.01426 6.81162C4.0209 6.80498 4.0292 6.79834 4.03584 6.79336C4.04248 6.78838 4.04746 6.7834 4.0541 6.78008C4.05576 6.77842 4.05908 6.77676 4.06074 6.7751L8.2792 3.96777C8.41201 3.87979 8.58633 3.87979 8.71914 3.96777L12.9376 6.7751C12.9393 6.77676 12.9426 6.77842 12.9442 6.78008L12.9625 6.79336L12.9857 6.81162C12.9907 6.8166 12.9957 6.82158 13.0023 6.82656C13.009 6.8332 13.0156 6.83984 13.0223 6.84814C13.0339 6.86143 13.0438 6.87471 13.0521 6.88965C13.0555 6.89629 13.0604 6.90127 13.0638 6.90791C13.0688 6.91621 13.0737 6.92451 13.0771 6.93447C13.0804 6.94111 13.0837 6.94775 13.0854 6.95439C13.0887 6.96436 13.092 6.97432 13.0953 6.98262C13.097 6.98926 13.1003 6.9959 13.102 7.00254C13.1053 7.01416 13.1069 7.02412 13.1086 7.03574C13.1103 7.04072 13.1103 7.04736 13.1119 7.05234C13.1136 7.06894 13.1152 7.08721 13.1152 7.10381V9.91113ZM8.89678 10.1319V11.9797L12.0046 9.91113L10.6167 8.98477L8.89678 10.1319ZM4.67832 7.8459V9.1707L5.67109 8.5083L4.67832 7.8459ZM8.5 7.57197L7.09717 8.5083L8.5 9.44463L9.90283 8.5083L8.5 7.57197ZM12.0046 7.10547L8.89678 5.03691V6.88467L10.6167 8.03184L12.0046 7.10547ZM6.3833 8.98477L4.99541 9.91113L8.10322 11.9797V10.1319L6.3833 8.98477Z" fill="black"/>
</svg>
