<svg width="24" height="24" viewBox="0 0 24 24" fill="none" xmlns="http://www.w3.org/2000/svg">
<path d="M10.6013 3H13.575V16.6268C12.3056 16.8873 11.0136 17.0217 9.71775 17.028C6.08625 17.0243 4.19625 15.402 4.19625 12.2865C4.19625 9.2865 6.201 7.3365 9.30825 7.3365C9.74404 7.328 10.179 7.37846 10.6013 7.4865V3V3ZM10.6013 9.8565C10.278 9.74986 9.93885 9.69913 9.5985 9.7065C8.0985 9.7065 7.22625 10.6238 7.22625 12.231C7.22625 13.7963 8.0565 14.6603 9.57975 14.6603C9.92162 14.6602 10.263 14.6351 10.6013 14.5853V9.86025V9.8565Z" fill="#44B78B"/>
<path d="M18.3 7.54431V14.3693C18.3 16.7191 18.1237 17.8486 17.6077 18.8228C17.0811 19.8134 16.22 20.585 15.1777 21.0001L12.4193 19.7003C13.4214 19.3571 14.2607 18.6546 14.775 17.7286C15.1995 16.8878 15.3337 15.9136 15.3337 13.3508V7.54431H18.3Z" fill="#44B78B"/>
<path d="M15.3307 3.01501H18.3038V6.03601H15.3307V3.01501Z" fill="#44B78B"/>
</svg>
