<svg width="15" height="14" viewBox="0 0 15 14" fill="none" xmlns="http://www.w3.org/2000/svg">
<g clip-path="url(#clip0)">
<path d="M10.3025 6.98598L14.1469 3.86865V10.0677L10.3025 6.98598ZM5.34875 7.5139L6.69875 8.60765C6.91063 8.77565 7.18688 8.87715 7.48875 8.87715H7.49937H7.49875H7.5075C7.81 8.87715 8.08625 8.77506 8.30063 8.6059L8.29875 8.60706L9.64875 7.51331L13.7525 10.8027H1.24688L5.34875 7.5139ZM1.24125 3.12956H13.76L7.74688 8.0039C7.67927 8.05381 7.59558 8.08094 7.50938 8.0809H7.50063H7.50125H7.4925C7.40599 8.081 7.32202 8.05364 7.25438 8.00331L7.255 8.0039L1.24125 3.12956ZM0.853125 3.86806L4.69687 6.9854L0.853125 10.0654V3.86806ZM14.3531 2.44415C14.2031 2.37415 14.0269 2.33331 13.84 2.33331H1.16187C0.980726 2.33335 0.802066 2.37269 0.64 2.44823L0.646875 2.44531C0.452858 2.53463 0.289467 2.6728 0.175159 2.84422C0.0608504 3.01565 0.000179593 3.21349 0 3.4154L0 10.5157C0.000330877 10.8031 0.122783 11.0786 0.340488 11.2818C0.558193 11.485 0.853369 11.5993 1.16125 11.5996H13.8381C14.146 11.5993 14.4412 11.485 14.6589 11.2818C14.8766 11.0786 14.999 10.8031 14.9994 10.5157V3.41773V3.4154C14.9994 2.99131 14.7375 2.62381 14.3562 2.44706L14.3494 2.44415H14.3531Z" fill="black"/>
</g>
<defs>
<clipPath id="clip0">
<rect width="15" height="14" fill="white"/>
</clipPath>
</defs>
</svg>
