<svg width="18" height="18" viewBox="0 0 18 18" fill="none" xmlns="http://www.w3.org/2000/svg">
<path fill-rule="evenodd" clip-rule="evenodd" d="M8.58248 0C3.84066 0 0 3.93781 0 8.79957C0 12.6934 2.45674 15.9822 5.86827 17.1482C6.2974 17.2252 6.45832 16.9612 6.45832 16.7302C6.45832 16.5212 6.44759 15.8282 6.44759 15.0913C4.29124 15.4982 3.73338 14.5523 3.56173 14.0573C3.46518 13.8043 3.04678 13.0234 2.68203 12.8144C2.38164 12.6494 1.95251 12.2424 2.6713 12.2314C3.34717 12.2204 3.82993 12.8694 3.99085 13.1334C4.76328 14.4643 5.99701 14.0903 6.4905 13.8593C6.5656 13.2873 6.79089 12.9024 7.03764 12.6824C5.12803 12.4624 3.13261 11.7034 3.13261 8.33759C3.13261 7.38064 3.46518 6.58868 4.01231 5.97271C3.92649 5.75272 3.6261 4.85076 4.09814 3.64082C4.09814 3.64082 4.81692 3.40983 6.45832 4.54278C7.14492 4.34479 7.87443 4.24579 8.60394 4.24579C9.33345 4.24579 10.063 4.34479 10.7496 4.54278C12.391 3.39883 13.1097 3.64082 13.1097 3.64082C13.5818 4.85076 13.2814 5.75272 13.1956 5.97271C13.7427 6.58868 14.0753 7.36964 14.0753 8.33759C14.0753 11.7144 12.0691 12.4624 10.1595 12.6824C10.4706 12.9574 10.7388 13.4853 10.7388 14.3103C10.7388 15.4872 10.7281 16.4332 10.7281 16.7302C10.7281 16.9612 10.889 17.2362 11.3181 17.1482C13.0219 16.5584 14.5024 15.4357 15.5512 13.938C16.6001 12.4404 17.1645 10.6433 17.165 8.79957C17.165 3.93781 13.3243 0 8.58248 0Z" fill="black"/>
</svg>
