<svg width="24" height="24" viewBox="0 0 24 24" fill="none" xmlns="http://www.w3.org/2000/svg">
<g clip-path="url(#clip0)">
<path d="M11.2141 0.0065752C11.1625 0.0112627 10.9983 0.027669 10.8504 0.0393877C7.44169 0.3467 4.24866 2.1857 2.22637 5.01226C1.10025 6.58389 0.380063 8.36664 0.107906 10.255C0.0117188 10.914 0 11.1087 0 12.0025C0 12.8962 0.0117188 13.0909 0.107906 13.75C0.760125 18.256 3.96712 22.042 8.31666 23.4447C9.09562 23.6958 9.91669 23.867 10.8504 23.9702C11.2141 24.01 12.7859 24.01 13.1496 23.9702C14.7613 23.7919 16.1267 23.3932 17.4733 22.7059C17.6798 22.6003 17.7197 22.5722 17.6915 22.5487C17.6727 22.5346 16.793 21.3548 15.7372 19.9285L13.8182 17.3365L11.4135 13.7782C10.0903 11.8218 9.00178 10.222 8.99241 10.222C8.98303 10.2197 8.97366 11.8008 8.96897 13.7312C8.96184 17.1114 8.95959 17.2474 8.91731 17.3272C8.85637 17.4421 8.80941 17.4891 8.71088 17.5406C8.63578 17.5781 8.57006 17.5852 8.21588 17.5852H7.80994L7.70212 17.5172C7.63527 17.4753 7.58095 17.4161 7.54491 17.3459L7.49559 17.2404L7.50028 12.5373L7.50731 7.8318L7.58006 7.74029C7.61756 7.69108 7.69734 7.6278 7.75369 7.59723C7.84988 7.55036 7.88737 7.54567 8.29322 7.54567C8.77181 7.54567 8.85159 7.56442 8.97591 7.70045C9.01116 7.73795 10.3132 9.69901 11.8709 12.0611C13.4288 14.4232 15.559 17.6485 16.6053 19.2319L18.5056 22.11L18.6018 22.0467C19.4534 21.4931 20.3542 20.705 21.0674 19.8839C22.5853 18.1411 23.5636 16.016 23.8921 13.75C23.9883 13.0909 24 12.8962 24 12.0025C24 11.1087 23.9883 10.9141 23.8921 10.255C23.2399 5.74886 20.0329 1.96286 15.6833 0.560169C14.9161 0.311544 14.0997 0.140263 13.1847 0.037044C12.9595 0.0136064 11.4088 -0.0121748 11.2141 0.0065752V0.0065752ZM16.1267 7.26414C16.2393 7.32039 16.3308 7.42839 16.3636 7.54098C16.3823 7.60192 16.387 8.90617 16.3823 11.8453L16.3754 16.0629L15.6317 14.9229L14.8856 13.7829V10.717C14.8856 8.73489 14.895 7.62067 14.9091 7.56676C14.9466 7.43542 15.0288 7.3322 15.1414 7.27117C15.2376 7.22195 15.2727 7.21726 15.6411 7.21726C15.9883 7.21726 16.0493 7.22195 16.1267 7.26414Z" fill="black"/>
</g>
<defs>
<clipPath id="clip0">
<rect width="24" height="24" fill="white"/>
</clipPath>
</defs>
</svg>
