<svg width="14" height="15" viewBox="0 0 14 15" fill="none" xmlns="http://www.w3.org/2000/svg">
<path d="M7 6.875C7.48325 6.875 7.875 6.45527 7.875 5.9375C7.875 5.41973 7.48325 5 7 5C6.51675 5 6.125 5.41973 6.125 5.9375C6.125 6.45527 6.51675 6.875 7 6.875Z" fill="black"/>
<path d="M6.99999 1.25C5.77036 1.24993 4.59039 1.76985 3.71655 2.69674C2.84271 3.62364 2.34562 4.8826 2.33333 6.2C2.33333 9.625 6.44583 13.4375 6.62083 13.6C6.72649 13.6968 6.86096 13.75 6.99999 13.75C7.13903 13.75 7.2735 13.6968 7.37916 13.6C7.58333 13.4375 11.6667 9.625 11.6667 6.2C11.6544 4.8826 11.1573 3.62364 10.2834 2.69674C9.4096 1.76985 8.22963 1.24993 6.99999 1.25ZM6.99999 8.125C6.59619 8.125 6.20146 7.99671 5.86571 7.75634C5.52995 7.51597 5.26827 7.17433 5.11374 6.77462C4.95921 6.37491 4.91878 5.93507 4.99756 5.51074C5.07634 5.08641 5.27079 4.69663 5.55632 4.3907C5.84185 4.08478 6.20564 3.87644 6.60168 3.79203C6.99773 3.70763 7.40824 3.75095 7.78131 3.91651C8.15437 4.08208 8.47324 4.36246 8.69758 4.72219C8.92192 5.08192 9.04166 5.50485 9.04166 5.9375C9.04166 6.51766 8.82656 7.07406 8.44367 7.4843C8.06078 7.89453 7.54148 8.125 6.99999 8.125V8.125Z" fill="black"/>
</svg>
