<svg width="24" height="24" viewBox="0 0 24 24" fill="none" xmlns="http://www.w3.org/2000/svg">
<path d="M11.8984 0.00671387C5.82038 0.00671387 6.19988 2.65283 6.19988 2.65283L6.20663 5.39429H12.0068V6.21735H3.90291C3.90291 6.21735 0.0135956 5.77453 0.0135956 11.9312C0.0135956 18.0881 3.40828 17.8698 3.40828 17.8698H5.43422V15.0127C5.43422 15.0127 5.325 11.6047 8.77472 11.6047H14.5274C14.5274 11.6047 17.7594 11.6572 17.7594 8.46883V3.19711C17.7594 3.19711 18.2503 0.00671387 11.8984 0.00671387ZM8.70019 1.85029C8.83725 1.85017 8.97299 1.87718 9.09964 1.92978C9.22629 1.98238 9.34137 2.05953 9.43829 2.15683C9.5352 2.25413 9.61206 2.36965 9.66445 2.4968C9.71685 2.62395 9.74375 2.76022 9.74363 2.89782C9.74375 3.03542 9.71685 3.17169 9.66445 3.29884C9.61206 3.42599 9.5352 3.54151 9.43829 3.63881C9.34137 3.73611 9.22629 3.81326 9.09964 3.86586C8.97299 3.91846 8.83725 3.94547 8.70019 3.94535C8.56313 3.94547 8.42739 3.91846 8.30074 3.86586C8.17409 3.81326 8.05901 3.73611 7.96209 3.63881C7.86518 3.54151 7.78832 3.42599 7.73593 3.29884C7.68354 3.17169 7.65663 3.03542 7.65675 2.89782C7.65663 2.76022 7.68354 2.62395 7.73593 2.4968C7.78832 2.36965 7.86518 2.25413 7.96209 2.15683C8.05901 2.05953 8.17409 1.98238 8.30074 1.92978C8.42739 1.87718 8.56313 1.85017 8.70019 1.85029V1.85029Z" fill="url(#paint0_linear)"/>
<path d="M12.071 23.9177C18.149 23.9177 17.7695 21.2716 17.7695 21.2716L17.7627 18.5302H11.9625V17.7072H20.0663C20.0663 17.7072 23.9557 18.15 23.9557 11.9931C23.9557 5.83632 20.561 6.05467 20.561 6.05467H18.535V8.91161C18.535 8.91161 18.6443 12.3196 15.1945 12.3196H9.44184C9.44184 12.3196 6.20981 12.2672 6.20981 15.4556V20.7274C6.20981 20.7274 5.71903 23.9177 12.0709 23.9177H12.071ZM15.2692 22.0743C15.1321 22.0745 14.9964 22.0475 14.8697 21.9949C14.7431 21.9423 14.628 21.8651 14.5311 21.7678C14.4341 21.6705 14.3573 21.555 14.3049 21.4278C14.2525 21.3007 14.2256 21.1644 14.2257 21.0268C14.2256 20.8892 14.2525 20.7529 14.3049 20.6258C14.3573 20.4986 14.4341 20.3831 14.531 20.2858C14.6279 20.1884 14.743 20.1113 14.8697 20.0587C14.9963 20.0061 15.1321 19.9791 15.2692 19.9792C15.4062 19.9791 15.542 20.0061 15.6686 20.0587C15.7953 20.1113 15.9103 20.1884 16.0073 20.2857C16.1042 20.383 16.181 20.4985 16.2334 20.6257C16.2858 20.7528 16.3127 20.8891 16.3126 21.0267C16.3127 21.1643 16.2858 21.3006 16.2334 21.4277C16.181 21.5549 16.1042 21.6704 16.0073 21.7677C15.9103 21.865 15.7953 21.9422 15.6686 21.9948C15.542 22.0474 15.4062 22.0744 15.2692 22.0742V22.0743Z" fill="url(#paint1_linear)"/>
<defs>
<linearGradient id="paint0_linear" x1="2.31442" y1="2.15736" x2="14.2254" y2="13.9034" gradientUnits="userSpaceOnUse">
<stop stop-color="#387EB8"/>
<stop offset="1" stop-color="#366994"/>
</linearGradient>
<linearGradient id="paint1_linear" x1="9.59713" y1="9.72995" x2="22.3858" y2="21.7723" gradientUnits="userSpaceOnUse">
<stop stop-color="#FFE052"/>
<stop offset="1" stop-color="#FFC331"/>
</linearGradient>
</defs>
</svg>
