<svg width="24" height="24" viewBox="0 0 24 24" fill="none" xmlns="http://www.w3.org/2000/svg">
<path d="M20.475 3.75H4.4145L1.5 6.7185V19.5H19.5855L22.5 16.5315V3.75H20.475ZM12.675 17.3025L11.304 17.9415L10.125 15.9982C9.85943 16.0619 9.58637 16.0886 9.3135 16.0778C7.92975 16.0778 6.97125 15.7028 6.426 14.9603C5.80069 13.8962 5.51741 12.6656 5.6145 11.4352C5.52551 10.1864 5.81288 8.93947 6.4395 7.8555C6.785 7.43846 7.22827 7.11334 7.72984 6.90907C8.2314 6.70481 8.77569 6.62775 9.31425 6.68475C10.6852 6.68475 11.6295 7.071 12.189 7.84275C12.8156 8.92672 13.103 10.1736 13.014 11.4225C13.0407 12.2951 12.9262 13.1664 12.675 14.0025C12.4801 14.6095 12.0921 15.1363 11.5703 15.5025L12.675 17.3025ZM17.061 16.05C16.7686 16.0853 16.472 16.0572 16.1915 15.9677C15.9109 15.8781 15.6529 15.7292 15.435 15.531C15.0805 14.9439 14.9278 14.257 15 13.575V10.5H14.25V9H15V6.75H16.5V9H18V10.5H16.5V13.425C16.4745 13.789 16.5173 14.1545 16.626 14.5027C16.71 14.676 16.9207 14.769 17.271 14.769L18.4208 14.7292L18.4905 15.8873C18.0189 15.978 17.541 16.0324 17.061 16.05V16.05ZM9.312 7.9605C8.97732 7.92369 8.63903 7.98149 8.33556 8.12732C8.03209 8.27316 7.77561 8.50119 7.59525 8.7855C7.24011 9.61613 7.08593 10.5188 7.14525 11.4203C7.07886 12.3048 7.2335 13.1919 7.59525 14.0018C7.78554 14.2762 8.04729 14.4933 8.35215 14.6296C8.65701 14.7659 8.99336 14.8162 9.32475 14.775C9.65285 14.8173 9.98627 14.769 10.2889 14.6353C10.5915 14.5017 10.8518 14.2878 11.0415 14.0167C11.3934 13.2041 11.5442 12.3186 11.481 11.4352C11.5415 10.5294 11.3873 9.62204 11.031 8.787C10.8507 8.50204 10.5939 8.27347 10.29 8.12734C9.98605 7.98122 9.64718 7.92341 9.312 7.9605V7.9605Z" fill="#FFA351"/>
</svg>
