<svg width="24" height="19" viewBox="0 0 24 19" fill="none" xmlns="http://www.w3.org/2000/svg">
<path d="M21.693 0H3.32925L0 3.57081V18.9595H20.6705L23.9996 15.3888V0H21.693Z" fill="#41CD52"/>
<path d="M8.94872 3.31628C10.5111 3.31628 11.6072 3.7902 12.2288 4.74653C12.8587 5.69406 13.1695 7.15913 13.1695 9.14206C13.1695 10.4492 13.0387 11.502 12.7852 12.3005C12.5232 13.1077 12.1062 13.7219 11.5172 14.1429L12.7851 16.345L11.2227 17.1259L9.87309 14.7482C9.67678 14.8096 9.37406 14.8448 8.94872 14.8448C7.36997 14.8448 6.26578 14.3886 5.64403 13.476C5.02246 12.5636 4.71159 11.1161 4.71159 9.15067C4.71159 7.17665 5.03062 5.71157 5.66043 4.75524C6.29034 3.79881 7.38637 3.31638 8.94872 3.31638V3.31628ZM16.916 3.94813V6.3169H19.01V7.83472H16.916V11.4231C16.916 12.0898 16.965 12.5285 17.055 12.7392C17.1449 12.9585 17.3822 13.0638 17.7502 13.0638L18.9936 13.011L19.0672 14.4325C18.3965 14.5728 17.881 14.6431 17.5212 14.6431C16.6624 14.6431 16.0734 14.4325 15.7543 14.0113C15.4354 13.5902 15.2718 12.7917 15.2718 11.6161V7.82601H14.1102V6.3169H15.2718V3.94813H16.916ZM8.97872 4.78196C8.03184 4.78196 7.37896 5.12109 7.01981 5.80845C6.6689 6.49572 6.48937 7.58475 6.48937 9.09327C6.48937 10.5928 6.66075 11.6729 7.0035 12.3156C7.34634 12.9583 8.00747 13.2885 8.97872 13.2885C9.94997 13.2885 10.6029 12.9672 10.9457 12.3335C11.2804 11.6996 11.4517 10.6196 11.4517 9.11109C11.4517 7.59366 11.2804 6.49572 10.9294 5.80845C10.5785 5.12109 9.9255 4.78196 8.97872 4.78196V4.78196Z" fill="white"/>
</svg>
