<svg width="24" height="20" viewBox="0 0 24 20" fill="none" xmlns="http://www.w3.org/2000/svg">
<path d="M19.7328 6.4759C19.4774 6.3939 19.2198 6.31794 18.9603 6.24809C19.0039 6.08142 19.044 5.91677 19.0796 5.75502C19.6644 3.09879 19.2821 0.958879 17.9763 0.254317C16.7242 -0.421121 14.6767 0.283177 12.6087 1.96712C12.4049 2.13338 12.2056 2.30443 12.0111 2.48011C11.8808 2.36329 11.7483 2.24874 11.6135 2.13651C9.44616 0.335984 7.27378 -0.422876 5.96934 0.283703C4.71844 0.961247 4.34803 2.97291 4.87453 5.49028C4.92691 5.7396 4.98606 5.98763 5.05191 6.23414C4.74441 6.3159 4.44769 6.40291 4.16372 6.49554C1.62272 7.32449 0 8.62353 0 9.97098C0 11.3626 1.74206 12.7585 4.38863 13.6049C4.60319 13.6733 4.81954 13.7366 5.03747 13.7948C4.96669 14.0603 4.90385 14.3276 4.84903 14.5964C4.34709 17.0701 4.73906 19.0342 5.98659 19.7075C7.27509 20.4027 9.43772 19.6882 11.5434 17.9658C11.7142 17.8258 11.8812 17.6818 12.0443 17.534C12.255 17.7242 12.4713 17.9089 12.693 18.0878C14.7328 19.7301 16.7473 20.3933 17.9936 19.7182C19.2809 19.0209 19.6993 16.9109 19.1561 14.3438C19.1133 14.1427 19.0654 13.9426 19.0122 13.7436C19.1641 13.7015 19.3132 13.6582 19.4585 13.6131C22.2098 12.7602 24 11.3812 24 9.97098C24 8.61861 22.3249 7.31081 19.7328 6.4759V6.4759ZM19.1361 12.7026C19.0048 12.7432 18.8702 12.7824 18.7329 12.8205C18.4292 11.9208 18.0193 10.9641 17.5177 9.97563C17.9963 9.01072 18.3905 8.06625 18.6857 7.17239C18.9312 7.23888 19.1694 7.30897 19.3991 7.38291C21.6201 8.09835 22.9747 9.15598 22.9747 9.97098C22.9747 10.8391 21.5117 11.966 19.1361 12.7026V12.7026ZM18.1504 14.5301C18.3906 15.6652 18.4248 16.6915 18.2657 17.4939C18.1228 18.2148 17.8354 18.6955 17.4799 18.888C16.7236 19.2977 15.1061 18.7652 13.3617 17.3606C13.1555 17.1943 12.9543 17.0226 12.7582 16.8457C13.4346 16.1537 14.1104 15.3492 14.77 14.4557C15.9303 14.3594 17.0264 14.2019 18.0204 13.9869C18.0694 14.1717 18.1129 14.3529 18.1504 14.5301V14.5301ZM8.18213 18.8172C7.44319 19.0613 6.85462 19.0684 6.49884 18.8764C5.74181 18.4679 5.42709 16.8908 5.85637 14.7754C5.9074 14.5254 5.96583 14.2768 6.03159 14.0298C7.01466 14.2334 8.10281 14.3797 9.26578 14.4679C9.92991 15.3422 10.6252 16.1458 11.326 16.8495C11.1771 16.9843 11.0247 17.1157 10.8688 17.2435C9.93759 18.0051 9.0045 18.5455 8.18213 18.8172V18.8172ZM4.72031 12.6972C3.55003 12.3229 2.58356 11.8365 1.92113 11.3057C1.32581 10.8288 1.02534 10.3552 1.02534 9.97098C1.02534 9.15326 2.32819 8.11028 4.50122 7.40142C4.76494 7.31546 5.04094 7.23432 5.32734 7.15818C5.62772 8.07221 6.02166 9.02791 6.49706 9.99432C6.01547 10.975 5.61591 11.946 5.31262 12.8708C5.1137 12.8175 4.9162 12.7596 4.72031 12.6972V12.6972ZM5.88075 5.30598C5.42972 3.14923 5.72925 1.5223 6.48309 1.11397C7.28597 0.679054 9.06141 1.29914 10.9327 2.85388C11.0548 2.95549 11.1748 3.05916 11.2928 3.16484C10.5955 3.86546 9.90656 4.66309 9.24834 5.53221C8.11959 5.63011 7.03912 5.7873 6.04575 5.99791C5.98455 5.76863 5.92953 5.53795 5.88075 5.30607V5.30598ZM16.2333 7.69791C15.9986 7.3187 15.7553 6.94425 15.5034 6.57484C16.2692 6.66546 17.0029 6.78572 17.6918 6.93274C17.485 7.55309 17.2272 8.2016 16.9238 8.86651C16.7019 8.47272 16.4717 8.08311 16.2333 7.69791V7.69791ZM12.0115 3.85046C12.4844 4.32984 12.958 4.86502 13.4239 5.44572C12.4789 5.40396 11.5323 5.40379 10.5873 5.44519C11.0536 4.86984 11.5313 4.33537 12.0115 3.85046ZM7.76269 7.70449C7.52722 8.08658 7.30131 8.47377 7.08516 8.86572C6.78666 8.20318 6.53119 7.55169 6.32259 6.92256C7.00734 6.77923 7.73756 6.66204 8.49844 6.57309C8.24376 6.94475 7.99844 7.32196 7.76269 7.7044V7.70449ZM8.52028 13.4371C7.73419 13.355 6.993 13.2439 6.30844 13.1044C6.52031 12.4641 6.78141 11.7987 7.08637 11.1219C7.30339 11.5142 7.53024 11.9016 7.76672 12.2839C8.00991 12.6769 8.26172 13.0618 8.52028 13.4371ZM12.0398 16.1591C11.5538 15.6685 11.0692 15.1258 10.5958 14.5421C11.0554 14.559 11.5238 14.5676 12 14.5676C12.4892 14.5676 12.9728 14.5573 13.4487 14.5375C12.9814 15.1317 12.5095 15.6752 12.0398 16.1591ZM16.9334 11.0874C17.2542 11.7716 17.5246 12.4334 17.7393 13.0628C17.0435 13.2114 16.2922 13.3311 15.5005 13.4199C15.7542 13.0437 15.9998 12.6627 16.2373 12.2773C16.4788 11.8855 16.7108 11.4888 16.9334 11.0874V11.0874ZM15.3492 11.798C14.9857 12.3889 14.6017 12.9686 14.1979 13.5362C13.4664 13.5846 12.7333 13.6087 12 13.6084C11.2531 13.6084 10.5266 13.5866 9.82706 13.5441C9.41271 12.9779 9.0214 12.3972 8.65397 11.8033H8.65406C8.28836 11.2125 7.94677 10.6089 7.63003 9.99388C7.94597 9.37869 8.28652 8.77484 8.65097 8.18361L8.65088 8.1837C9.01519 7.59232 9.40337 7.01409 9.81459 6.45028C10.5283 6.39976 11.2602 6.37344 11.9999 6.37344H12C12.7431 6.37344 13.4759 6.40002 14.1894 6.4509C14.5965 7.01387 14.9822 7.5901 15.3458 8.17853C15.7115 8.76846 16.0566 9.36936 16.3805 9.98028C16.0599 10.5975 15.7159 11.2037 15.3492 11.798V11.798ZM17.4642 1.08537C18.2678 1.51905 18.5804 3.26791 18.0755 5.56133C18.0432 5.70765 18.007 5.85669 17.9677 6.00783C16.9718 5.79274 15.8906 5.63283 14.7586 5.53344C14.0992 4.65476 13.4158 3.8559 12.7298 3.16432C12.9096 3.00217 13.0937 2.84423 13.2818 2.69063C15.0537 1.24791 16.7097 0.678265 17.4642 1.08537V1.08537ZM12 7.96572C13.1836 7.96572 14.1431 8.86353 14.1431 9.97098C14.1431 11.0784 13.1836 11.9762 12 11.9762C10.8164 11.9762 9.85687 11.0784 9.85687 9.97098C9.85687 8.86353 10.8164 7.96572 12 7.96572V7.96572Z" fill="#00D8FF"/>
</svg>
