<svg width="24" height="24" viewBox="0 0 24 24" fill="none" xmlns="http://www.w3.org/2000/svg">
<path d="M8.95 13.4H6.58C6.33845 12.4823 6.33845 11.5177 6.58 10.6H8.95C8.88834 11.0642 8.85495 11.5317 8.85 12C8.85495 12.4683 8.88834 12.9358 8.95 13.4V13.4ZM7.16 9.2H9.2C9.43329 8.33622 9.76198 7.50108 10.18 6.71C8.90435 7.1457 7.83087 8.03079 7.16 9.2V9.2ZM16.84 9.2C16.1639 8.03131 15.0876 7.14684 13.81 6.71C14.2338 7.49729 14.5595 8.33351 14.78 9.2H16.84ZM12 17.57C12.5942 16.7256 13.0468 15.79 13.34 14.8H10.66C10.9532 15.79 11.4058 16.7256 12 17.57V17.57ZM12 6.42C11.4053 7.26771 10.9527 8.20669 10.66 9.2H13.34C13.0473 8.20669 12.5947 7.26771 12 6.42V6.42ZM7.16 14.8C7.83508 15.9657 8.90704 16.8495 10.18 17.29C9.76198 16.4989 9.43329 15.6638 9.2 14.8H7.16ZM21 5V19C21 19.5304 20.7893 20.0391 20.4142 20.4142C20.0391 20.7893 19.5304 21 19 21H5C4.46957 21 3.96086 20.7893 3.58579 20.4142C3.21071 20.0391 3 19.5304 3 19V5C3 4.46957 3.21071 3.96086 3.58579 3.58579C3.96086 3.21071 4.46957 3 5 3H19C19.5304 3 20.0391 3.21071 20.4142 3.58579C20.7893 3.96086 21 4.46957 21 5ZM19 12C19 10.6155 18.5895 9.26215 17.8203 8.11101C17.0511 6.95986 15.9579 6.06266 14.6788 5.53284C13.3997 5.00303 11.9922 4.86441 10.6344 5.1345C9.2765 5.4046 8.02922 6.07128 7.05025 7.05025C6.07128 8.02922 5.4046 9.2765 5.1345 10.6344C4.86441 11.9922 5.00303 13.3997 5.53284 14.6788C6.06266 15.9579 6.95986 17.0511 8.11101 17.8203C9.26215 18.5895 10.6155 19 12 19C13.8565 19 15.637 18.2625 16.9497 16.9497C18.2625 15.637 19 13.8565 19 12V12ZM15.15 12C15.1451 12.4683 15.1117 12.9358 15.05 13.4H17.42C17.6616 12.4823 17.6616 11.5177 17.42 10.6H15.05C15.1117 11.0642 15.1451 11.5317 15.15 12V12ZM13.81 17.29C15.0862 16.8508 16.1618 15.9669 16.84 14.8H14.78C14.5595 15.6665 14.2338 16.5027 13.81 17.29V17.29ZM10.36 10.6C10.2107 11.5274 10.2107 12.4726 10.36 13.4H13.64C13.7085 12.9364 13.7452 12.4686 13.75 12C13.7455 11.5314 13.7088 11.0636 13.64 10.6H10.36Z" fill="black"/>
</svg>
